<svg width="143" height="122" viewBox="0 0 143 122" fill="none" xmlns="http://www.w3.org/2000/svg">
<g clip-path="url(#clip0_499_635)">
<path d="M130.419 56.5741C130.385 56.0833 130.342 55.6012 130.291 55.119C130.196 54.1461 130.076 53.1818 129.938 52.2261C129.801 51.2618 129.629 50.3148 129.448 49.3591C129.259 48.412 129.053 47.4736 128.813 46.5437C128.469 45.1317 128.056 43.7542 127.609 42.3852C127.154 41.0163 126.656 39.6645 126.114 38.3472C125.745 37.4604 125.358 36.5822 124.946 35.7127C124.533 34.8431 124.103 33.9821 123.648 33.1383C120.933 28.0586 117.452 23.3405 113.276 19.1475C112.932 18.8031 112.571 18.4587 112.219 18.1143C111.506 17.4342 110.784 16.7798 110.045 16.1341C107.45 13.8956 104.709 11.8981 101.821 10.1676C100.163 9.16883 98.4784 8.26481 96.7426 7.43827C96.3129 7.24025 95.8747 7.03361 95.4364 6.8442C94.1216 6.25874 92.7897 5.72493 91.4406 5.24279C90.9851 5.0792 90.5383 4.92423 90.0828 4.76925C88.7165 4.32155 87.333 3.91689 85.9323 3.56389C81.2748 2.39296 76.4282 1.79028 71.5043 1.79028C66.5803 1.79028 61.7338 2.39296 57.0676 3.56389C55.6669 3.90828 54.2834 4.32155 52.9171 4.76925C52.4617 4.91562 52.0062 5.0792 51.5594 5.24279C50.2016 5.72493 48.8697 6.25874 47.5549 6.8442C47.1253 7.03361 46.6784 7.24025 46.2487 7.43827C44.5129 8.26481 42.8286 9.16883 41.1787 10.1676C38.2914 11.8981 35.5416 13.887 32.955 16.1341C32.216 16.7712 31.4942 17.4256 30.7809 18.1143C30.42 18.4587 30.0677 18.7945 29.724 19.1475C25.5305 23.3405 22.0588 28.0586 19.3433 33.1383C18.8879 33.9821 18.4668 34.8431 18.0543 35.7127C17.6419 36.5822 17.2552 37.4518 16.8943 38.3472C16.3443 39.6731 15.8459 41.0249 15.399 42.3852C14.9436 43.7542 14.5483 45.1403 14.196 46.5437C13.964 47.4736 13.7491 48.412 13.5601 49.3591C13.371 50.3148 13.2078 51.2618 13.0617 52.2261C12.9156 53.1904 12.7953 54.1461 12.7094 55.119C12.6578 55.6012 12.6234 56.0833 12.5891 56.5741C12.4773 58.0377 12.4258 59.51 12.4258 60.9908C12.4258 61.981 12.443 62.9711 12.4945 63.944C12.5203 64.4347 12.5547 64.9255 12.5891 65.4076C12.6492 66.1997 12.718 66.9832 12.8125 67.7667C13.732 67.5515 14.6342 67.3362 15.5537 67.1382C15.3303 65.1149 15.2186 63.0572 15.2186 60.9908C15.2186 55.8336 15.906 50.7367 17.2724 45.8463C18.2434 42.3422 19.5839 38.881 21.251 35.5749C24.0696 29.9872 27.7733 24.9505 32.2504 20.594C34.3127 18.5621 36.5728 16.6765 38.9617 14.9804C45.2004 10.5464 52.1179 7.48993 59.5511 5.89713C63.461 5.04476 67.4826 4.60567 71.5043 4.60567V61.0339H71.5214C80.7506 61.0339 89.911 61.516 99.0026 62.4803C107.983 63.436 116.894 64.8566 125.693 66.7508C126.278 66.8713 126.853 67.0005 127.446 67.1382C128.366 67.3362 129.277 67.5515 130.196 67.7667C130.291 66.9832 130.368 66.1997 130.419 65.4163C130.454 64.9341 130.48 64.4434 130.514 63.9526C130.557 62.9797 130.583 61.9896 130.583 60.9995C130.583 59.5186 130.523 58.0463 130.419 56.5827V56.5741ZM59.5425 7.73961C52.6335 9.28076 46.1714 12.1392 40.3366 16.2202C49.4111 20.3959 53.9053 22.8841 59.7057 28.6182L59.5425 7.73961ZM57.927 42.4971C54.1975 35.8246 48.8181 29.1004 38.3602 23.3405C37.011 22.6086 35.7306 21.9715 34.2784 21.145C34.012 21.386 33.7542 21.6271 33.505 21.8768C29.1654 26.0956 25.582 30.9687 22.8494 36.3756C22.54 37.0041 22.2478 37.6326 21.9557 38.2698C24.8172 40.1983 27.842 41.8342 30.8067 42.876C40.646 46.3457 50.9235 50.1942 59.0441 59.863C59.0441 59.863 59.4737 58.847 59.6284 55.7561C59.8518 51.4082 59.8776 45.9582 57.9355 42.4799L57.927 42.4971ZM42.3474 60.9908C42.0552 60.7412 41.7717 60.4915 41.4709 60.2504C41.2389 60.0524 40.9983 59.863 40.7577 59.6736C40.4741 59.4497 40.1819 59.2172 39.8898 58.9934C39.5976 58.7695 39.3054 58.5457 39.0132 58.3304C38.4203 57.9 37.8188 57.4695 37.2001 57.0562C36.8993 56.8582 36.6071 56.6602 36.3064 56.4621C35.9541 56.2383 35.6017 56.0144 35.2494 55.7906C34.9658 55.6098 34.6737 55.4462 34.3815 55.274C34.0034 55.0501 33.6253 54.8263 33.23 54.6024C33.1698 54.5594 33.1011 54.5249 33.0409 54.4905C33.0152 54.4733 32.998 54.4733 32.9808 54.4561C32.9808 54.4561 32.955 54.4561 32.955 54.4388C32.1988 54.0084 31.4168 53.5951 30.6262 53.1904C30.3083 53.0268 29.9818 52.8633 29.6552 52.7083C28.8732 52.3208 28.0741 51.9506 27.2577 51.5804C23.279 49.7982 20.4261 47.5252 18.991 46.3715C17.6848 51.0983 17.0146 56.0058 17.0146 60.9822C17.0146 61.3266 17.0146 61.6796 17.0318 62.024C17.0318 62.2565 17.0318 62.4889 17.0489 62.7128V62.8936C17.0489 63.1605 17.0747 63.436 17.0833 63.7029C17.0833 63.8062 17.0833 63.9009 17.1005 63.9957V64.0473C17.1177 64.4778 17.1521 64.8911 17.1864 65.3129C17.2036 65.5368 17.2208 65.7693 17.2466 65.9931C17.2638 66.217 17.281 66.4408 17.3067 66.6733C17.3067 66.6991 17.3067 66.7249 17.3067 66.7508C26.1062 64.8566 35.0174 63.436 43.9973 62.4803C43.4559 61.9724 42.906 61.4644 42.3388 60.9822L42.3474 60.9908ZM57.1707 101.224C50.468 101.655 43.8169 102.404 37.2259 103.463C37.5696 103.738 37.9047 104.014 38.2484 104.272C38.5062 104.47 38.7554 104.659 39.0218 104.857C39.2453 105.021 39.4601 105.185 39.6835 105.34C40.3796 105.839 41.0928 106.33 41.8146 106.795C42.124 107.001 42.4419 107.199 42.7513 107.389C43.0864 107.604 43.4302 107.811 43.7825 108.017C43.7997 108.017 43.7997 108.034 43.8169 108.034C43.877 108.069 43.9458 108.112 44.0059 108.146C44.0231 108.146 44.0403 108.164 44.0575 108.172C44.3325 108.336 44.6074 108.491 44.8996 108.646C45.3379 108.895 45.7847 109.137 46.2316 109.369C46.3948 109.455 46.5581 109.541 46.73 109.627C47.151 109.843 47.5721 110.058 48.0018 110.256C48.0705 110.29 48.1479 110.325 48.2252 110.359C48.6892 110.583 49.1447 110.79 49.6173 110.996C49.6689 111.013 49.7204 111.039 49.7634 111.056C49.9524 111.143 50.1415 111.22 50.3219 111.306C50.6399 111.444 50.9664 111.573 51.293 111.702C51.3102 111.702 51.3188 111.702 51.3359 111.719C51.7656 111.892 52.1953 112.064 52.6335 112.219C52.8054 112.279 52.9772 112.348 53.1405 112.4C53.3038 112.46 53.4757 112.52 53.6561 112.58C53.6733 112.58 53.6905 112.598 53.7077 112.598C53.7335 112.598 53.7678 112.615 53.8022 112.623C54.2405 112.778 54.6873 112.925 55.1342 113.054C55.1599 113.071 55.1771 113.071 55.1943 113.071C55.3146 113.106 55.4349 113.149 55.5552 113.183C55.9161 113.295 56.2856 113.407 56.6466 113.502L57.1793 101.198L57.1707 101.224ZM108.086 103.842C107.304 103.704 106.522 103.575 105.74 103.454C99.1487 102.404 92.5061 101.655 85.8034 101.224C81.0599 100.914 76.2907 100.751 71.5043 100.751H71.4871V117.376C66.8038 117.376 62.1376 116.791 57.6262 115.645C49.0158 113.459 41.2905 109.352 34.8713 103.85C33.7112 104.04 32.5597 104.255 31.3996 104.47C31.5457 104.616 31.7004 104.754 31.8465 104.892C32.2074 105.219 32.5769 105.546 32.9464 105.865C35.533 108.095 38.2828 110.092 41.1701 111.831C41.9951 112.322 42.8286 112.796 43.6794 113.252C44.9426 113.932 46.2402 114.561 47.5463 115.146C47.9846 115.344 48.4228 115.534 48.8697 115.714C55.9505 118.65 63.6071 120.191 71.4957 120.191C76.918 120.191 82.2372 119.468 87.3244 118.056C90.1 117.29 92.8069 116.317 95.4364 115.146C96.3129 114.759 97.1808 114.345 98.0316 113.915C98.4612 113.7 98.8823 113.484 99.312 113.252C103.119 111.211 106.711 108.74 110.045 105.865C110.414 105.546 110.775 105.219 111.136 104.892C111.282 104.754 111.437 104.616 111.583 104.47C110.414 104.246 109.254 104.04 108.086 103.833V103.842Z" fill="#C9A05C"></path>
<path d="M132.224 56.4451C132.19 55.9372 132.147 55.4378 132.095 54.947C131.992 53.9397 131.872 52.9496 131.726 51.9595C131.579 50.9693 131.416 49.9878 131.21 49.0149C131.021 48.0334 130.806 47.0691 130.565 46.1048C130.205 44.6584 129.792 43.2292 129.328 41.8258C128.855 40.4138 128.348 39.019 127.781 37.6587C127.403 36.7375 126.999 35.8334 126.578 34.938C126.149 34.0512 125.71 33.1644 125.246 32.2948C122.445 27.0515 118.861 22.1956 114.548 17.8821C114.187 17.5205 113.826 17.1675 113.465 16.8145C112.726 16.1171 111.978 15.437 111.222 14.7826C108.558 12.4752 105.722 10.4175 102.749 8.63526C101.048 7.6107 99.3033 6.68085 97.5245 5.82848C97.0776 5.61324 96.6308 5.40661 96.1753 5.20858C94.8176 4.61451 93.4513 4.05488 92.0592 3.55551C91.5865 3.39193 91.1225 3.22834 90.6499 3.07337C89.2406 2.60844 87.8141 2.19517 86.379 1.83357C81.5754 0.628202 76.5828 0.00830078 71.5127 0.00830078C66.4427 0.00830078 61.4415 0.628202 56.6379 1.83357C55.1942 2.19517 53.7677 2.60844 52.367 3.07337C51.8944 3.22834 51.4304 3.39193 50.9663 3.55551C49.5742 4.05488 48.1993 4.6059 46.8502 5.20858C46.3947 5.40661 45.9479 5.61324 45.501 5.82848C43.7222 6.67224 41.9692 7.6107 40.2763 8.63526C37.3031 10.4175 34.4673 12.4752 31.8034 14.7826C31.0386 15.437 30.291 16.1171 29.5606 16.8145C29.1911 17.1589 28.8302 17.5205 28.4692 17.8821C24.1554 22.2042 20.5721 27.0515 17.7707 32.2948C17.3066 33.173 16.8598 34.0512 16.4387 34.938C16.0091 35.8334 15.6138 36.7375 15.2357 37.6587C14.6685 39.0276 14.1529 40.4224 13.6889 41.8258C13.2248 43.2378 12.8124 44.667 12.4515 46.1048C12.2108 47.0691 11.9874 48.0334 11.7984 49.0149C11.6093 49.9878 11.4375 50.9693 11.2828 51.9595C11.1367 52.9496 11.0164 53.9483 10.9219 54.947C10.8703 55.4464 10.8273 55.9458 10.793 56.4451C10.6812 57.9518 10.6211 59.4758 10.6211 60.9997C10.6211 62.0156 10.6469 63.0316 10.6984 64.0475C10.7156 64.5555 10.7586 65.0549 10.793 65.5542C10.8531 66.4324 10.939 67.3192 11.0508 68.1974C11.1109 68.7915 11.1968 69.377 11.2828 69.971C11.8757 69.8247 12.4515 69.6869 13.0358 69.5492C13.9467 69.3339 14.8576 69.1187 15.777 68.9207C16.37 68.7829 16.9371 68.6537 17.5301 68.5332C26.7936 66.5358 36.1688 65.0635 45.6385 64.1164C54.1974 63.2554 62.8164 62.825 71.4956 62.825H71.5127C80.1919 62.825 88.8109 63.2554 97.3612 64.1164C106.831 65.0635 116.198 66.5358 125.461 68.5332C126.045 68.6537 126.63 68.7829 127.214 68.912C128.125 69.1187 129.044 69.3339 129.955 69.5492C130.54 69.6783 131.115 69.8161 131.7 69.9624C131.794 69.3684 131.872 68.7829 131.94 68.1888C132.043 67.3106 132.129 66.441 132.19 65.5542C132.224 65.0549 132.25 64.5469 132.284 64.0475C132.336 63.0402 132.353 62.0156 132.353 60.9997C132.353 59.4758 132.293 57.9518 132.19 56.4451H132.224ZM17.3152 66.7596C17.3152 66.7596 17.3152 66.7079 17.3152 66.6821C17.2894 66.4583 17.2723 66.2344 17.2551 66.002C17.2293 65.7781 17.2207 65.5542 17.1949 65.3218C17.1605 64.8999 17.1348 64.478 17.109 64.0562V64.0045C17.109 63.9098 17.0918 63.8151 17.0918 63.7118C17.0746 63.4449 17.066 63.1693 17.0574 62.9024V62.7216C17.0402 62.4978 17.0402 62.2653 17.0402 62.0329C17.0231 61.6885 17.0231 61.3355 17.0231 60.9911C17.0231 56.0147 17.6933 51.1071 18.9995 46.3804C20.4346 47.5341 23.2875 49.7984 27.2662 51.5892C28.0825 51.9595 28.8817 52.3297 29.6637 52.7171C29.9902 52.8721 30.3168 53.0357 30.6347 53.1993C31.4339 53.6039 32.2073 54.0172 32.9635 54.4477C32.9635 54.4477 32.9807 54.4477 32.9893 54.4649C33.0065 54.4821 33.0322 54.4821 33.0494 54.4993C33.1096 54.5338 33.1783 54.5682 33.2385 54.6113C33.6252 54.8351 34.0119 55.0504 34.39 55.2828C34.6821 55.455 34.9743 55.6272 35.2579 55.7994C35.6102 56.0233 35.9711 56.2385 36.3149 56.471C36.6156 56.6604 36.9078 56.8584 37.2086 57.065C37.8273 57.4783 38.4202 57.9088 39.0217 58.3393C39.3225 58.5545 39.6147 58.7698 39.8982 59.0022C40.1904 59.2261 40.4826 59.4499 40.7662 59.6824C41.0068 59.8632 41.2388 60.0612 41.4794 60.2593C41.7802 60.5003 42.0637 60.75 42.3559 60.9997C42.9145 61.4818 43.473 61.9898 44.0144 62.4978C35.0345 63.4535 26.1147 64.8741 17.3238 66.7682L17.3152 66.7596ZM59.6283 55.7736C59.4822 58.8645 59.044 59.8804 59.044 59.8804C50.9234 50.2117 40.6544 46.3631 30.8066 42.8934C27.8419 41.8516 24.8171 40.2072 21.9556 38.2872C22.2477 37.6501 22.5399 37.0216 22.8493 36.3931C25.5819 30.9861 29.1653 26.113 33.5049 21.8943C33.7541 21.6446 34.0205 21.4035 34.2783 21.1624C35.7305 21.989 37.0109 22.6175 38.3601 23.3579C48.8094 29.1178 54.1974 35.8334 57.9268 42.5146C59.8689 45.9929 59.8345 51.4429 59.6197 55.7908L59.6283 55.7736ZM40.3451 16.2204C46.1799 12.1394 52.642 9.28099 59.551 7.73985L59.7142 28.6185C53.9138 22.893 49.4195 20.4048 40.3451 16.2204ZM127.455 67.1384C126.862 67.0007 126.286 66.8715 125.702 66.751C116.902 64.8569 108 63.4362 99.0111 62.4806C89.9195 61.5163 80.7591 61.0341 71.5299 61.0341H71.5127V4.6059C67.4911 4.6059 63.4695 5.03639 59.5596 5.89736C52.135 7.49016 45.2089 10.5466 38.9702 14.9806C36.5813 16.6854 34.3298 18.5623 32.2589 20.5942C27.7818 24.9507 24.0781 29.9874 21.2595 35.5751C19.5924 38.8813 18.2519 42.3424 17.2809 45.8466C15.9145 50.7455 15.2271 55.8338 15.2271 60.9911C15.2271 63.0574 15.3388 65.1152 15.5622 67.1384C14.6427 67.3365 13.7404 67.5517 12.821 67.7669C12.7178 66.9835 12.6491 66.2 12.5975 65.4079C12.5632 64.9257 12.5288 64.435 12.503 63.9442C12.4515 62.9713 12.4343 61.9812 12.4343 60.9911C12.4343 59.5102 12.4858 58.0379 12.5975 56.5743C12.6319 56.0835 12.6663 55.6014 12.7178 55.1192C12.8124 54.1463 12.9327 53.1821 13.0702 52.2264C13.2163 51.2621 13.3795 50.315 13.5686 49.3593C13.7576 48.4123 13.9639 47.4738 14.2045 46.5439C14.5568 45.1319 14.9521 43.7544 15.4075 42.3854C15.8544 41.0165 16.3614 39.6648 16.9027 38.3475C17.2723 37.4607 17.659 36.5825 18.0628 35.7129C18.4753 34.8433 18.905 33.9823 19.3518 33.1386C22.0673 28.0588 25.5475 23.3407 29.7324 19.1478C30.0848 18.8034 30.4285 18.459 30.7894 18.1146C31.5027 17.4344 32.2245 16.7801 32.9635 16.1343C35.5501 13.8958 38.2999 11.8984 41.1872 10.1678C42.8371 9.16906 44.5214 8.26504 46.2572 7.43851C46.6869 7.24048 47.1337 7.03385 47.5634 6.84443C48.8782 6.25897 50.2101 5.72517 51.5679 5.24302C52.0147 5.07944 52.4701 4.92446 52.9256 4.76949C54.2919 4.32178 55.6754 3.91712 57.0761 3.56412C61.7422 2.3932 66.5802 1.79052 71.5127 1.79052C76.4453 1.79052 81.2833 2.3932 85.9408 3.56412C87.3501 3.90851 88.725 4.32178 90.0913 4.76949C90.5468 4.91585 90.9936 5.07944 91.4491 5.24302C92.7982 5.72517 94.1301 6.25897 95.4449 6.84443C95.8832 7.03385 96.3214 7.24048 96.7511 7.43851C98.4869 8.26504 100.171 9.16906 101.83 10.1678C104.717 11.8984 107.458 13.8872 110.053 16.1343C110.792 16.7715 111.514 17.4258 112.227 18.1146C112.58 18.459 112.941 18.7948 113.284 19.1478C117.469 23.3407 120.95 28.0588 123.656 33.1386C124.112 33.9823 124.542 34.8433 124.954 35.7129C125.358 36.5825 125.753 37.4521 126.123 38.3475C126.673 39.6734 127.163 41.0251 127.618 42.3854C128.065 43.7544 128.469 45.1406 128.821 46.5439C129.053 47.4738 129.259 48.4123 129.457 49.3593C129.637 50.315 129.809 51.2621 129.947 52.2264C130.093 53.1907 130.213 54.1463 130.299 55.1192C130.351 55.6014 130.394 56.0835 130.428 56.5743C130.531 58.0379 130.591 59.5102 130.591 60.9911C130.591 61.9812 130.565 62.9713 130.522 63.9442C130.497 64.435 130.462 64.9257 130.428 65.4079C130.368 66.1914 130.29 66.9749 130.205 67.7583C129.285 67.5431 128.374 67.3279 127.455 67.1298V67.1384Z" fill="#C9A05C"></path>
<path d="M130.419 56.5741C130.385 56.0833 130.342 55.6012 130.291 55.119C130.196 54.1461 130.076 53.1818 129.938 52.2261C129.801 51.2618 129.629 50.3148 129.448 49.3591C129.259 48.412 129.053 47.4736 128.813 46.5437C128.469 45.1317 128.056 43.7542 127.609 42.3852C127.154 41.0163 126.656 39.6645 126.114 38.3472C125.745 37.4604 125.358 36.5822 124.946 35.7127C124.533 34.8431 124.103 33.9821 123.648 33.1383C120.933 28.0586 117.452 23.3405 113.276 19.1475C112.932 18.8031 112.571 18.4587 112.219 18.1143C111.506 17.4342 110.784 16.7798 110.045 16.1341C107.45 13.8956 104.709 11.8981 101.821 10.1676C100.163 9.16883 98.4784 8.26481 96.7426 7.43827C96.3129 7.24025 95.8747 7.03361 95.4364 6.8442C94.1216 6.25874 92.7897 5.72493 91.4406 5.24279C90.9851 5.0792 90.5383 4.92423 90.0828 4.76925C88.7165 4.32155 87.333 3.91689 85.9323 3.56389C81.2748 2.39296 76.4282 1.79028 71.5043 1.79028C66.5803 1.79028 61.7338 2.39296 57.0676 3.56389C55.6669 3.90828 54.2834 4.32155 52.9171 4.76925C52.4617 4.91562 52.0062 5.0792 51.5594 5.24279C50.2016 5.72493 48.8697 6.25874 47.5549 6.8442C47.1253 7.03361 46.6784 7.24025 46.2487 7.43827C44.5129 8.26481 42.8286 9.16883 41.1787 10.1676C38.2914 11.8981 35.5416 13.887 32.955 16.1341C32.216 16.7712 31.4942 17.4256 30.7809 18.1143C30.42 18.4587 30.0677 18.7945 29.724 19.1475C25.5305 23.3405 22.0588 28.0586 19.3433 33.1383C18.8879 33.9821 18.4668 34.8431 18.0543 35.7127C17.6419 36.5822 17.2552 37.4518 16.8943 38.3472C16.3443 39.6731 15.8459 41.0249 15.399 42.3852C14.9436 43.7542 14.5483 45.1403 14.196 46.5437C13.964 47.4736 13.7491 48.412 13.5601 49.3591C13.371 50.3148 13.2078 51.2618 13.0617 52.2261C12.9156 53.1904 12.7953 54.1461 12.7094 55.119C12.6578 55.6012 12.6234 56.0833 12.5891 56.5741C12.4773 58.0377 12.4258 59.51 12.4258 60.9908C12.4258 61.981 12.443 62.9711 12.4945 63.944C12.5203 64.4347 12.5547 64.9255 12.5891 65.4076C12.6492 66.1997 12.718 66.9832 12.8125 67.7667C13.732 67.5515 14.6342 67.3362 15.5537 67.1382C15.3303 65.1149 15.2186 63.0572 15.2186 60.9908C15.2186 55.8336 15.906 50.7367 17.2724 45.8463C18.2434 42.3422 19.5839 38.881 21.251 35.5749C24.0696 29.9872 27.7733 24.9505 32.2504 20.594C34.3127 18.5621 36.5728 16.6765 38.9617 14.9804C45.2004 10.5464 52.1179 7.48993 59.5511 5.89713C63.461 5.04476 67.4826 4.60567 71.5043 4.60567V61.0339H71.5214C80.7506 61.0339 89.911 61.516 99.0026 62.4803C107.983 63.436 116.894 64.8566 125.693 66.7508C126.278 66.8713 126.853 67.0005 127.446 67.1382C128.366 67.3362 129.277 67.5515 130.196 67.7667C130.291 66.9832 130.368 66.1997 130.419 65.4163C130.454 64.9341 130.48 64.4434 130.514 63.9526C130.557 62.9797 130.583 61.9896 130.583 60.9995C130.583 59.5186 130.523 58.0463 130.419 56.5827V56.5741ZM59.5425 7.73961C52.6335 9.28076 46.1714 12.1392 40.3366 16.2202C49.4111 20.3959 53.9053 22.8841 59.7057 28.6182L59.5425 7.73961ZM57.927 42.4971C54.1975 35.8246 48.8181 29.1004 38.3602 23.3405C37.011 22.6086 35.7306 21.9715 34.2784 21.145C34.012 21.386 33.7542 21.6271 33.505 21.8768C29.1654 26.0956 25.582 30.9687 22.8494 36.3756C22.54 37.0041 22.2478 37.6326 21.9557 38.2698C24.8172 40.1983 27.842 41.8342 30.8067 42.876C40.646 46.3457 50.9235 50.1942 59.0441 59.863C59.0441 59.863 59.4737 58.847 59.6284 55.7561C59.8518 51.4082 59.8776 45.9582 57.9355 42.4799L57.927 42.4971ZM42.3474 60.9908C42.0552 60.7412 41.7717 60.4915 41.4709 60.2504C41.2389 60.0524 40.9983 59.863 40.7577 59.6736C40.4741 59.4497 40.1819 59.2172 39.8898 58.9934C39.5976 58.7695 39.3054 58.5457 39.0132 58.3304C38.4203 57.9 37.8188 57.4695 37.2001 57.0562C36.8993 56.8582 36.6071 56.6602 36.3064 56.4621C35.9541 56.2383 35.6017 56.0144 35.2494 55.7906C34.9658 55.6098 34.6737 55.4462 34.3815 55.274C34.0034 55.0501 33.6253 54.8263 33.23 54.6024C33.1698 54.5594 33.1011 54.5249 33.0409 54.4905C33.0152 54.4733 32.998 54.4733 32.9808 54.4561C32.9808 54.4561 32.955 54.4561 32.955 54.4388C32.1988 54.0084 31.4168 53.5951 30.6262 53.1904C30.3083 53.0268 29.9818 52.8633 29.6552 52.7083C28.8732 52.3208 28.0741 51.9506 27.2577 51.5804C23.279 49.7982 20.4261 47.5252 18.991 46.3715C17.6848 51.0983 17.0146 56.0058 17.0146 60.9822C17.0146 61.3266 17.0146 61.6796 17.0318 62.024C17.0318 62.2565 17.0318 62.4889 17.0489 62.7128V62.8936C17.0489 63.1605 17.0747 63.436 17.0833 63.7029C17.0833 63.8062 17.0833 63.9009 17.1005 63.9957V64.0473C17.1177 64.4778 17.1521 64.8911 17.1864 65.3129C17.2036 65.5368 17.2208 65.7693 17.2466 65.9931C17.2638 66.217 17.281 66.4408 17.3067 66.6733C17.3067 66.6991 17.3067 66.7249 17.3067 66.7508C26.1062 64.8566 35.0174 63.436 43.9973 62.4803C43.4559 61.9724 42.906 61.4644 42.3388 60.9822L42.3474 60.9908ZM57.1707 101.224C50.468 101.655 43.8169 102.404 37.2259 103.463C37.5696 103.738 37.9047 104.014 38.2484 104.272C38.5062 104.47 38.7554 104.659 39.0218 104.857C39.2453 105.021 39.4601 105.185 39.6835 105.34C40.3796 105.839 41.0928 106.33 41.8146 106.795C42.124 107.001 42.4419 107.199 42.7513 107.389C43.0864 107.604 43.4302 107.811 43.7825 108.017C43.7997 108.017 43.7997 108.034 43.8169 108.034C43.877 108.069 43.9458 108.112 44.0059 108.146C44.0231 108.146 44.0403 108.164 44.0575 108.172C44.3325 108.336 44.6074 108.491 44.8996 108.646C45.3379 108.895 45.7847 109.137 46.2316 109.369C46.3948 109.455 46.5581 109.541 46.73 109.627C47.151 109.843 47.5721 110.058 48.0018 110.256C48.0705 110.29 48.1479 110.325 48.2252 110.359C48.6892 110.583 49.1447 110.79 49.6173 110.996C49.6689 111.013 49.7204 111.039 49.7634 111.056C49.9524 111.143 50.1415 111.22 50.3219 111.306C50.6399 111.444 50.9664 111.573 51.293 111.702C51.3102 111.702 51.3188 111.702 51.3359 111.719C51.7656 111.892 52.1953 112.064 52.6335 112.219C52.8054 112.279 52.9772 112.348 53.1405 112.4C53.3038 112.46 53.4757 112.52 53.6561 112.58C53.6733 112.58 53.6905 112.598 53.7077 112.598C53.7335 112.598 53.7678 112.615 53.8022 112.623C54.2405 112.778 54.6873 112.925 55.1342 113.054C55.1599 113.071 55.1771 113.071 55.1943 113.071C55.3146 113.106 55.4349 113.149 55.5552 113.183C55.9161 113.295 56.2856 113.407 56.6466 113.502L57.1793 101.198L57.1707 101.224ZM108.086 103.842C107.304 103.704 106.522 103.575 105.74 103.454C99.1487 102.404 92.5061 101.655 85.8034 101.224C81.0599 100.914 76.2907 100.751 71.5043 100.751H71.4871V117.376C66.8038 117.376 62.1376 116.791 57.6262 115.645C49.0158 113.459 41.2905 109.352 34.8713 103.85C33.7112 104.04 32.5597 104.255 31.3996 104.47C31.5457 104.616 31.7004 104.754 31.8465 104.892C32.2074 105.219 32.5769 105.546 32.9464 105.865C35.533 108.095 38.2828 110.092 41.1701 111.831C41.9951 112.322 42.8286 112.796 43.6794 113.252C44.9426 113.932 46.2402 114.561 47.5463 115.146C47.9846 115.344 48.4228 115.534 48.8697 115.714C55.9505 118.65 63.6071 120.191 71.4957 120.191C76.918 120.191 82.2372 119.468 87.3244 118.056C90.1 117.29 92.8069 116.317 95.4364 115.146C96.3129 114.759 97.1808 114.345 98.0316 113.915C98.4612 113.7 98.8823 113.484 99.312 113.252C103.119 111.211 106.711 108.74 110.045 105.865C110.414 105.546 110.775 105.219 111.136 104.892C111.282 104.754 111.437 104.616 111.583 104.47C110.414 104.246 109.254 104.04 108.086 103.833V103.842Z" fill="#66202D"></path>
<path d="M59.62 55.7735C59.4739 58.8644 59.0357 59.8803 59.0357 59.8803C50.9151 50.2116 40.6461 46.3631 30.7983 42.8933C27.8336 41.8516 24.8088 40.2071 21.9473 38.2871C22.2394 37.65 22.5316 37.0215 22.841 36.393C25.5736 30.9861 29.157 26.113 33.4966 21.8942C33.7458 21.6445 34.0122 21.4034 34.27 21.1624C35.7222 21.9889 37.0026 22.6174 38.3517 23.3578C48.8011 29.1178 54.1891 35.8333 57.9185 42.5145C59.8606 45.9928 59.8262 51.4428 59.6114 55.7907L59.62 55.7735Z" fill="#932836"></path>
<path d="M83.483 7.73975C83.483 7.73975 83.4658 7.73975 83.4572 7.73975L83.2939 28.6184C89.0944 22.8929 93.5886 20.4047 102.663 16.2289C96.8283 12.1479 90.3834 9.2895 83.483 7.73975Z" fill="#66202D"></path>
<path d="M44.0062 62.489C35.0263 63.4446 26.1065 64.8652 17.3156 66.7594C17.3156 66.7336 17.3156 66.7077 17.3156 66.6819C17.2898 66.458 17.2726 66.2342 17.2555 66.0017C17.2297 65.7779 17.2211 65.554 17.1953 65.3216C17.1609 64.8997 17.1351 64.4778 17.1094 64.0559V64.0043C17.1094 63.9096 17.0922 63.8148 17.0922 63.7115C17.075 63.4446 17.0664 63.1691 17.0578 62.9022V62.7214C17.0406 62.4976 17.0406 62.2651 17.0406 62.0326C17.0234 61.6882 17.0234 61.3352 17.0234 60.9909C17.0234 56.0144 17.6937 51.1069 18.9999 46.3801C20.435 47.5338 23.2879 49.7982 27.2666 51.589C28.0829 51.9592 28.8821 52.3295 29.6641 52.7169C29.9906 52.8719 30.3172 53.0355 30.6351 53.199C31.4343 53.6037 32.2077 54.017 32.9639 54.4475C32.9639 54.4475 32.9811 54.4475 32.9897 54.4647C33.0069 54.4819 33.0326 54.4819 33.0498 54.4991C33.11 54.5336 33.1787 54.568 33.2389 54.611C33.6256 54.8349 34.0123 55.0501 34.3904 55.2826C34.6825 55.4548 34.9747 55.627 35.2583 55.7992C35.6106 56.023 35.9715 56.2383 36.3152 56.4707C36.616 56.6602 36.9082 56.8582 37.2089 57.0648C37.8277 57.4781 38.4206 57.9086 39.0221 58.3391C39.3229 58.5543 39.615 58.7695 39.8986 59.002C40.1908 59.2259 40.483 59.4497 40.7665 59.6822C41.0071 59.863 41.2392 60.061 41.4798 60.259C41.7805 60.5001 42.0641 60.7498 42.3563 60.9995C42.9148 61.4816 43.4734 61.9896 44.0148 62.4976L44.0062 62.489Z" fill="#932836"></path>
<path d="M57.1879 101.224L56.6551 113.528C56.2942 113.424 55.9247 113.321 55.5637 113.209C55.4434 113.175 55.3231 113.132 55.2028 113.097C55.1856 113.097 55.1684 113.097 55.1427 113.08C54.7044 112.942 54.2576 112.804 53.8107 112.649C53.7849 112.649 53.7506 112.632 53.7162 112.624C53.699 112.624 53.6818 112.606 53.6646 112.606C53.4842 112.546 53.3123 112.495 53.149 112.426C52.9772 112.365 52.8053 112.305 52.642 112.245C52.2038 112.09 51.7655 111.918 51.3445 111.745C51.3273 111.745 51.3187 111.728 51.3015 111.728C50.975 111.599 50.6484 111.461 50.3305 111.332C50.15 111.246 49.9524 111.169 49.7719 111.083C49.7203 111.065 49.6688 111.048 49.6258 111.022C49.1532 110.816 48.6977 110.609 48.2337 110.385C48.165 110.351 48.0876 110.316 48.0103 110.282C47.5806 110.084 47.1596 109.869 46.7385 109.653C46.5666 109.567 46.4034 109.481 46.2401 109.395C45.7932 109.163 45.3464 108.921 44.9081 108.672C44.616 108.517 44.341 108.362 44.066 108.198C44.0488 108.198 44.0316 108.181 44.0144 108.172C43.9543 108.138 43.8855 108.095 43.8254 108.061C43.8082 108.061 43.8082 108.043 43.791 108.043C43.4387 107.837 43.095 107.63 42.7598 107.415C42.4505 107.225 42.1325 107.027 41.8232 106.821C41.1013 106.356 40.3881 105.865 39.692 105.366C39.4686 105.211 39.2538 105.047 39.0304 104.884C38.764 104.694 38.5148 104.496 38.257 104.298C37.9132 104.031 37.5781 103.764 37.2344 103.489C43.834 102.43 50.4765 101.681 57.1793 101.25L57.1879 101.224Z" fill="#932836"></path>
<path d="M59.7061 28.6184C53.9056 22.8929 49.4114 20.4047 40.3369 16.2203C46.1717 12.1393 52.6338 9.28089 59.5428 7.73975L59.7061 28.6184Z" fill="#932836"></path>
<path d="M112.193 42.8934C115.157 41.8516 118.182 40.2158 121.035 38.2872C120.777 37.7276 120.528 37.1679 120.245 36.6169C117.564 31.2272 114.006 26.3283 109.684 22.0751C109.366 21.7651 109.039 21.4638 108.721 21.1538C107.26 21.9803 105.988 22.6089 104.631 23.3493C94.1814 29.1006 88.7934 35.8248 85.0725 42.4974C83.1305 45.9757 83.1648 51.4256 83.3797 55.7736C83.5344 58.8645 83.964 59.8804 83.964 59.8804C92.076 50.2117 102.354 46.3631 112.193 42.8934Z" fill="#66202D"></path>
<path d="M105.757 103.454C105.757 103.454 105.688 103.515 105.653 103.54C105.628 103.558 105.593 103.592 105.559 103.609C105.284 103.833 105.009 104.04 104.725 104.264C104.476 104.453 104.218 104.651 103.969 104.84C103.754 104.995 103.54 105.15 103.333 105.314C102.276 106.08 101.176 106.812 100.051 107.509C100.008 107.527 99.9734 107.561 99.9304 107.578C99.6812 107.733 99.4234 107.888 99.1742 108.035C98.3578 108.517 97.5243 108.982 96.6736 109.421C96.2697 109.636 95.8572 109.843 95.4447 110.041C95.0838 110.222 94.7315 110.385 94.362 110.557C94.3362 110.575 94.3018 110.583 94.2675 110.6C93.7605 110.833 93.2535 111.057 92.7379 111.281C92.4285 111.418 92.1106 111.547 91.8012 111.668C91.7153 111.702 91.6379 111.728 91.552 111.771C91.1567 111.926 90.7528 112.081 90.3489 112.228C89.988 112.365 89.6185 112.495 89.2404 112.624C89.1803 112.641 89.1201 112.667 89.0514 112.684C88.6647 112.83 88.2608 112.951 87.8741 113.071C87.8311 113.089 87.7968 113.089 87.7624 113.106C87.7366 113.106 87.7108 113.123 87.685 113.123C87.4616 113.183 87.2468 113.261 87.0148 113.321C86.7913 113.39 86.5679 113.459 86.3445 113.519L85.8203 101.224C92.5144 101.655 99.1656 102.404 105.757 103.454Z" fill="#66202D"></path>
<path d="M125.985 60.9998C125.985 61.766 125.968 62.5323 125.933 63.2986C125.916 63.6085 125.916 63.9185 125.882 64.2198C125.882 64.2715 125.882 64.3231 125.882 64.3662C125.865 64.6847 125.847 65.0033 125.822 65.3305C125.804 65.5887 125.779 65.847 125.753 66.1139C125.753 66.2603 125.736 66.4067 125.719 66.553C125.719 66.6133 125.701 66.6908 125.701 66.7511C116.902 64.8569 107.999 63.4363 99.0107 62.4806C99.5521 61.9641 100.093 61.4733 100.661 60.9825C100.944 60.7329 101.236 60.4832 101.537 60.2421C101.829 59.9924 102.13 59.7513 102.431 59.5189C102.732 59.2778 103.032 59.0453 103.342 58.8129C103.651 58.5804 103.96 58.348 104.27 58.1241C104.579 57.9003 104.897 57.6764 105.215 57.4525C105.533 57.2287 105.851 57.0135 106.177 56.7982C106.556 56.5485 106.934 56.3074 107.303 56.075C107.587 55.8942 107.879 55.7134 108.171 55.5412C108.506 55.3346 108.841 55.1365 109.194 54.9385C109.658 54.6716 110.122 54.4047 110.603 54.1464C110.637 54.1206 110.672 54.1034 110.706 54.0861C110.723 54.0861 110.732 54.0689 110.749 54.0689C110.766 54.0689 110.775 54.0517 110.783 54.0517C111.308 53.7676 111.84 53.4921 112.382 53.2079C112.837 52.9841 113.293 52.7602 113.748 52.5278C114.006 52.4072 114.264 52.2867 114.513 52.1748C114.925 51.9767 115.338 51.7873 115.759 51.5979C119.72 49.8157 122.565 47.56 124.008 46.4062C124.026 46.4665 124.051 46.5182 124.069 46.5871C125.349 51.2535 125.993 56.1094 125.993 60.9998H125.985Z" fill="#66202D"></path>
<path d="M105.757 103.454C105.757 103.454 105.688 103.515 105.653 103.54C105.628 103.558 105.593 103.592 105.559 103.609C105.284 103.833 105.009 104.04 104.725 104.264C104.476 104.453 104.218 104.651 103.969 104.84C103.754 104.995 103.539 105.15 103.333 105.314C102.276 106.08 101.176 106.812 100.051 107.509C100.008 107.527 99.9733 107.561 99.9303 107.578C99.6811 107.733 99.4233 107.888 99.1741 108.035C98.3578 108.517 97.5242 108.982 96.6735 109.421C96.2696 109.636 95.8571 109.843 95.4447 110.041C95.0837 110.222 94.7314 110.385 94.3619 110.557C94.3361 110.575 94.3018 110.583 94.2674 110.6C93.7604 110.833 93.2534 111.057 92.7378 111.281C92.4284 111.418 92.1105 111.547 91.8011 111.668C91.7152 111.702 91.6379 111.728 91.5519 111.771C91.1566 111.926 90.7527 112.081 90.3489 112.228C89.988 112.365 89.6184 112.495 89.2403 112.624C89.1802 112.641 89.12 112.667 89.0513 112.684C88.6646 112.83 88.2607 112.951 87.874 113.071C87.8311 113.089 87.7967 113.089 87.7623 113.106C87.7365 113.106 87.7107 113.123 87.685 113.123C87.4615 113.183 87.2467 113.261 87.0147 113.321C86.7913 113.39 86.5678 113.459 86.3444 113.519L85.8202 101.224C81.0768 100.914 76.3075 100.751 71.5211 100.751H71.5039V117.376H71.7187C76.5138 117.359 81.2486 116.739 85.7859 115.534C94.2244 113.321 101.795 109.257 108.102 103.833C107.321 103.695 106.539 103.566 105.757 103.446V103.454ZM125.787 46.1048C124.825 42.5576 123.51 39.0879 121.852 35.799C119.085 30.2371 115.407 25.1832 110.947 20.7836C108.884 18.7431 106.624 16.8317 104.218 15.1098C98.0656 10.7016 91.2168 7.62791 83.8868 5.99206C79.9597 5.09665 75.8693 4.63172 71.7187 4.6145H71.5039V61.0427H71.5211C80.7502 61.0427 89.9106 61.5249 99.0023 62.4892C99.5436 61.9726 100.085 61.4818 100.652 60.9911C100.936 60.7328 101.228 60.4831 101.529 60.2506C101.821 60.001 102.122 59.7599 102.422 59.5274C102.723 59.2863 103.024 59.0539 103.333 58.8214C103.643 58.589 103.952 58.3479 104.261 58.1326C104.571 57.9088 104.889 57.6763 105.207 57.4611C105.525 57.2372 105.842 57.022 106.169 56.8067C106.547 56.5571 106.925 56.316 107.295 56.0835C107.578 55.9027 107.87 55.7219 108.163 55.5497C108.498 55.3431 108.833 55.1365 109.185 54.947C109.649 54.6801 110.113 54.4132 110.595 54.1549C110.629 54.1291 110.663 54.1119 110.698 54.0947C110.715 54.0947 110.723 54.0775 110.741 54.0775C110.758 54.0775 110.766 54.0602 110.775 54.0602C111.299 53.7761 111.832 53.5006 112.373 53.2165C112.829 52.9926 113.284 52.7688 113.74 52.5363C113.997 52.4158 114.255 52.2952 114.504 52.1833C114.917 51.9853 115.329 51.7959 115.75 51.6065C119.712 49.8242 122.556 47.5685 124 46.4148C124.017 46.4751 124.043 46.5267 124.06 46.5956C125.341 51.2621 125.985 56.118 125.985 61.0083C125.985 61.7746 125.968 62.5408 125.933 63.3071C125.916 63.617 125.916 63.927 125.882 64.2283C125.882 64.28 125.882 64.3317 125.882 64.3747C125.865 64.6933 125.848 65.0118 125.822 65.339C125.805 65.5973 125.779 65.8556 125.753 66.1225C125.753 66.2688 125.736 66.4152 125.719 66.5616C125.719 66.6218 125.701 66.6993 125.701 66.7596C126.286 66.8801 126.862 67.0093 127.454 67.147C127.678 65.1237 127.79 63.0746 127.79 61.0083C127.79 55.9458 127.119 50.9435 125.796 46.1134L125.787 46.1048ZM83.4657 7.73123H83.4829C90.3832 9.27237 96.8368 12.1394 102.663 16.2204C93.5885 20.3875 89.0943 22.8758 83.2938 28.6098L83.4571 7.73123H83.4657ZM112.201 42.8848C102.362 46.3545 92.0847 50.2031 83.9727 59.8718C83.9727 59.8718 83.543 58.8559 83.3798 55.765C83.1649 51.417 83.1306 45.9671 85.0726 42.4887C88.7935 35.8162 94.1815 29.092 104.631 23.3321C105.989 22.6002 107.269 21.9631 108.721 21.1366C109.048 21.4379 109.374 21.7393 109.684 22.0578C114.015 26.311 117.564 31.2014 120.253 36.5911C120.528 37.1421 120.778 37.7103 121.044 38.2614C118.182 40.1899 115.166 41.8344 112.193 42.8676L112.201 42.8848Z" fill="#BC832B"></path>
<path d="M113.173 102.963C112.047 102.74 110.922 102.533 109.796 102.335C109.04 102.189 108.301 102.068 107.553 101.947C100.352 100.742 93.0908 99.8984 85.7694 99.4334C81.0517 99.1235 76.3168 98.9685 71.5561 98.9685H71.539C66.7697 98.9685 62.0263 99.1235 57.3086 99.4334C49.9785 99.907 42.7087 100.742 35.5075 101.956C34.7513 102.077 33.9951 102.206 33.2389 102.344C32.1132 102.542 31.0047 102.748 29.8876 102.972C29.1743 103.11 28.4783 103.248 27.7822 103.394C28.0142 103.644 28.2634 103.893 28.5041 104.143C28.7704 104.401 29.0282 104.651 29.2946 104.909C29.7587 105.366 30.2227 105.805 30.7039 106.244C31.082 106.58 31.4601 106.915 31.8382 107.251C34.5021 109.558 37.3379 111.608 40.3112 113.39C41.1533 113.898 42.0212 114.397 42.8891 114.862C44.2039 115.559 45.5273 116.214 46.885 116.808C47.3318 117.006 47.7873 117.204 48.2427 117.393C55.5384 120.424 63.427 122.008 71.5561 122.008C77.1418 122.008 82.6242 121.251 87.8661 119.804C90.7277 119.012 93.5205 118.013 96.2273 116.808C97.1296 116.412 98.0233 115.981 98.9084 115.542C99.3467 115.318 99.7849 115.086 100.223 114.862C104.142 112.753 107.854 110.213 111.283 107.251C111.669 106.915 112.039 106.58 112.408 106.244C112.89 105.813 113.362 105.366 113.818 104.909C114.084 104.66 114.342 104.401 114.6 104.152C114.849 103.902 115.089 103.652 115.33 103.394C114.625 103.248 113.929 103.11 113.225 102.972L113.173 102.963ZM57.1797 101.224L56.6469 113.528C56.286 113.424 55.9165 113.321 55.5556 113.209C55.4352 113.175 55.3149 113.132 55.1946 113.097C55.1775 113.097 55.1603 113.097 55.1345 113.08C54.6962 112.942 54.2494 112.804 53.8025 112.649C53.7768 112.649 53.7424 112.632 53.708 112.624C53.6908 112.624 53.6736 112.606 53.6564 112.606C53.476 112.546 53.3041 112.494 53.1409 112.426C52.969 112.365 52.7971 112.305 52.6339 112.245C52.1956 112.09 51.7573 111.918 51.3363 111.745C51.3191 111.745 51.3105 111.728 51.2933 111.728C50.9668 111.599 50.6402 111.461 50.3223 111.332C50.1418 111.246 49.9442 111.169 49.7637 111.082C49.7122 111.065 49.6606 111.048 49.6176 111.022C49.145 110.816 48.6896 110.609 48.2255 110.385C48.1568 110.351 48.0794 110.316 48.0021 110.282C47.5724 110.084 47.1514 109.868 46.7303 109.653C46.5584 109.567 46.3952 109.481 46.2319 109.395C45.785 109.162 45.3382 108.921 44.8999 108.672C44.6078 108.517 44.3328 108.362 44.0578 108.198C44.0406 108.198 44.0234 108.181 44.0062 108.172C43.9461 108.138 43.8774 108.095 43.8172 108.06C43.8 108.06 43.8 108.043 43.7828 108.043C43.4305 107.837 43.0868 107.63 42.7516 107.415C42.4423 107.225 42.1243 107.027 41.815 106.821C41.0931 106.356 40.3799 105.865 39.6839 105.366C39.4604 105.211 39.2456 105.047 39.0222 104.883C38.7558 104.694 38.5066 104.496 38.2488 104.298C37.9051 104.031 37.5699 103.764 37.2262 103.489C43.8258 102.43 50.4684 101.681 57.1711 101.25L57.1797 101.224ZM111.145 104.892C110.784 105.219 110.423 105.546 110.054 105.865C106.72 108.741 103.128 111.212 99.3209 113.252C98.8912 113.476 98.4702 113.7 98.0405 113.915C97.1898 114.346 96.3218 114.759 95.4453 115.146C92.8158 116.317 90.1089 117.29 87.3333 118.056C82.2375 119.468 76.9269 120.192 71.5046 120.192C63.616 120.192 55.9594 118.65 48.8786 115.714C48.4404 115.534 48.0021 115.344 47.5553 115.146C46.2405 114.561 44.9515 113.932 43.6883 113.252C42.8462 112.796 42.004 112.322 41.1791 111.831C38.2917 110.092 35.5419 108.103 32.9553 105.865C32.5858 105.546 32.2163 105.219 31.8554 104.892C31.7093 104.754 31.5547 104.616 31.4086 104.47C32.5687 104.255 33.7201 104.04 34.8802 103.85C41.2908 109.36 49.0161 113.459 57.6351 115.646C62.1466 116.791 66.8127 117.376 71.496 117.376V100.751H71.5132C76.2996 100.751 81.0689 100.906 85.8123 101.224C92.5065 101.655 99.1576 102.404 105.749 103.454C106.531 103.575 107.313 103.704 108.095 103.842C109.255 104.04 110.423 104.255 111.592 104.479C111.446 104.625 111.291 104.763 111.145 104.901V104.892Z" fill="#C9A05C"></path>
<path d="M25.5906 97.6257C25.4789 97.3072 25.2898 97.0919 25.0492 96.9628C24.4907 96.6528 23.7001 96.7734 23.1158 96.8681C22.9869 96.8853 22.8494 96.9111 22.7291 96.9197C22.2564 96.98 21.844 96.9886 21.7752 96.6528C21.7151 96.3945 21.844 96.1793 22.076 96.0415C22.2049 95.9641 22.3595 95.9038 22.5228 95.8693C23.3048 95.6885 23.9665 95.8521 24.293 95.9985L24.7227 95.1375C24.4391 95.0256 23.9923 94.9223 23.4767 94.9137C23.1243 94.8964 22.7548 94.9223 22.3595 95.017C22.0846 95.0773 21.8096 95.1806 21.5518 95.3183C20.976 95.6283 20.5636 96.1621 20.744 96.9542C21.0104 98.1509 22.2564 97.996 23.3048 97.8238C23.3392 97.8238 23.3735 97.8238 23.4079 97.8065C24.0696 97.7118 24.5336 97.7291 24.6282 98.1595C24.6969 98.4437 24.5422 98.6847 24.2587 98.8569C24.104 98.9602 23.9235 99.0291 23.7087 99.0808C22.7548 99.296 21.9729 98.9775 21.5002 98.7536L21.0792 99.5888C21.7322 99.9159 22.6603 100.209 23.8806 99.9332C24.2329 99.8471 24.568 99.7351 24.843 99.5629C25.4617 99.2099 25.8226 98.6331 25.6422 97.8238C25.625 97.7549 25.6078 97.686 25.582 97.6257H25.5906Z" fill="#932836"></path>
<path d="M31.7433 97.6776L31.6487 97.2385L31.3737 97.2902L29.3114 97.7034L28.5724 97.8498L28.3575 96.7133L28.4349 96.6961L30.1019 96.3689L29.9731 95.7318L29.9215 95.4735L29.784 95.5079L28.1685 95.8179L27.988 94.8966L29.0879 94.6728L30.9011 94.3198L30.7293 93.4158L28.4435 93.8635L26.7764 94.1993L26.8967 94.8106L27.713 98.9432L30.0246 98.4955L31.8292 98.1339L31.7433 97.6862V97.6776Z" fill="#932836"></path>
<path d="M35.6451 96.6873C34.6569 96.8595 33.9093 96.231 33.7546 95.327C33.5999 94.4402 34.107 93.5964 35.0694 93.4328C35.5764 93.3467 36.2295 93.4759 36.7279 93.7858L37.2693 92.9851C36.6162 92.5891 35.6967 92.3911 34.8202 92.5374C33.282 92.7957 32.4227 94.1302 32.6547 95.5078C32.8953 96.9026 34.1241 97.8668 35.7139 97.5999C36.7537 97.4277 37.5099 96.8165 37.9653 96.2138L37.1919 95.6455C36.8396 96.1277 36.2982 96.5754 35.6451 96.6787V96.6873Z" fill="#932836"></path>
<path d="M41.2735 91.5472C39.7525 91.7538 38.7299 93.0625 38.919 94.4573C39.1166 95.8779 40.4571 96.8422 41.9781 96.6355C43.4991 96.4289 44.5561 95.1202 44.3585 93.6996C44.1608 92.3048 42.7859 91.3319 41.2821 91.5472H41.2735ZM41.8492 95.7315C40.947 95.8607 40.1392 95.2063 40.0103 94.3023C39.89 93.4155 40.4915 92.5803 41.3938 92.4598C42.3047 92.3307 43.1296 92.9764 43.2499 93.8632C43.3788 94.7672 42.7601 95.611 41.8492 95.7401V95.7315Z" fill="#932836"></path>
<path d="M49.3248 90.7379L49.6342 93.7255L46.8671 90.9962L45.9648 91.0909L46.4718 95.9037L47.5288 95.7918L47.2195 92.8129H47.228L49.9779 95.5335L50.8974 95.4388L50.3818 90.626L49.3248 90.7379Z" fill="#932836"></path>
<path d="M57.7382 92.4511C57.7382 92.365 57.721 92.2789 57.7038 92.2014V92.1498C57.6093 91.5729 57.3601 91.1252 56.9648 90.7808C56.5093 90.3762 55.9078 90.1695 55.0227 90.2384L52.7627 90.4106L53.1236 95.2407L55.3836 95.0685C56.2945 94.9996 56.8015 94.7155 57.1796 94.2936C57.4288 94.0181 57.5835 93.6995 57.678 93.3379C57.678 93.3379 57.678 93.3322 57.678 93.3207V93.3035V93.2863C57.7382 93.0194 57.7554 92.7438 57.7296 92.4597L57.7382 92.4511ZM56.2859 93.7254C56.0539 93.9664 55.8391 94.1042 55.2805 94.1472L54.1032 94.2419L53.8798 91.2371L55.0485 91.151C55.6156 91.108 55.8906 91.2285 56.1484 91.4524C56.432 91.7107 56.6039 92.0809 56.6468 92.5458C56.6812 93.0366 56.5437 93.4326 56.2859 93.734V93.7254Z" fill="#932836"></path>
<path d="M61.0294 89.8684L59.0186 94.8018L60.1357 94.7502L60.531 93.7084L62.7566 93.6137L63.2464 94.6124L64.4065 94.5607L61.9488 89.834L61.038 89.877L61.0294 89.8684ZM60.8489 92.856L61.4934 91.1082H61.545L62.3527 92.7871L60.8489 92.856Z" fill="#932836"></path>
<path d="M70.4038 91.0908C70.3952 90.7034 70.232 90.359 69.9742 90.1007C69.6562 89.7821 69.2008 89.6013 68.5133 89.6186L65.8408 89.6961L65.9783 94.5433L67.0353 94.5089L66.9837 92.7267L68.4188 92.6836L69.45 94.4314L70.6616 94.397L69.4758 92.4856C70.0515 92.2101 70.4296 91.7193 70.4124 91.0908H70.4038ZM68.6852 91.7796L66.9493 91.8313L66.915 90.5656L68.5649 90.514C68.7539 90.5054 68.9774 90.5226 69.1492 90.7034C69.2609 90.8067 69.3297 90.9531 69.3297 91.1253C69.3383 91.4955 69.0461 91.771 68.6766 91.7796H68.6852Z" fill="#932836"></path>
<path d="M74.1594 91.289L72.9907 89.5928L71.6846 89.5842L73.5751 92.236L73.5579 94.4401L74.6235 94.4573L74.6406 92.2446L76.5827 89.6273L75.3367 89.6187L74.1594 91.289Z" fill="#932836"></path>
<path d="M82.9161 90.6431C83.4317 90.6689 84.0504 90.9358 84.4715 91.3405L85.1675 90.6776C84.6176 90.1524 83.7668 89.7649 82.8731 89.7133C81.3092 89.6358 80.1921 90.755 80.1233 92.1412C80.046 93.5618 81.0514 94.7586 82.6583 94.8447C83.7153 94.8963 84.5746 94.4658 85.1589 93.9751L84.5144 93.2519C84.0762 93.6565 83.4403 93.9751 82.7786 93.9406C81.7818 93.8976 81.1803 93.1227 81.2232 92.2101C81.2576 91.3061 81.9279 90.5829 82.8989 90.6345L82.9161 90.6431Z" fill="#932836"></path>
<path d="M89.3953 90.1352C87.8743 90.0146 86.5853 91.065 86.4736 92.4684C86.3619 93.8976 87.4704 95.1288 88.9914 95.2579C90.521 95.3785 91.8272 94.3367 91.9475 92.8989C92.0506 91.4955 90.9249 90.2471 89.3953 90.1352ZM89.0687 94.3453C88.1578 94.2764 87.5134 93.4671 87.5821 92.5545C87.6508 91.6677 88.4156 90.9789 89.3265 91.0564C90.246 91.1253 90.9077 91.9174 90.8389 92.8128C90.7702 93.7168 89.9882 94.4142 89.0687 94.3453Z" fill="#932836"></path>
<path d="M95.1272 90.8068L94.0703 90.6948L93.5547 95.5077L97.4388 95.9209L97.5334 95.0169L94.7148 94.707L95.1272 90.8068Z" fill="#932836"></path>
<path d="M100.739 91.4612L99.6818 91.3235L99.0459 96.1191L102.913 96.6357L103.033 95.7317L100.215 95.3615L100.739 91.4612Z" fill="#932836"></path>
<path d="M104.493 96.8766L108.635 97.5395L108.781 96.6355L105.688 96.1447L105.859 94.9996L107.63 95.2837L107.767 94.3797L106.006 94.1042L106.152 93.1744L109.082 93.6393L109.228 92.7353L105.258 92.0981L104.493 96.8766Z" fill="#932836"></path>
<path d="M113.233 94.2506C113.37 94.2764 113.516 94.3281 113.671 94.3883C114.049 94.5433 114.427 94.8102 114.676 95.146L115.493 94.6294C115.132 94.2075 114.711 93.8803 114.255 93.6479C113.98 93.5015 113.688 93.3982 113.396 93.3465C111.926 93.071 110.569 93.9751 110.302 95.3698C110.148 96.1791 110.397 96.9712 110.921 97.5481C111.299 97.97 111.84 98.2799 112.476 98.4005C112.502 98.4005 112.536 98.4177 112.571 98.4177C113.293 98.5382 114.161 98.4177 114.839 98.0819L115.243 95.9467L114.796 95.8606L112.837 95.4904L112.674 96.3513L114.109 96.6269L114.092 96.713L113.954 97.4276C113.782 97.5051 113.576 97.5481 113.353 97.5567C113.129 97.5739 112.897 97.5567 112.683 97.5137C112.167 97.4103 111.806 97.152 111.591 96.8163C111.359 96.4547 111.29 96.0156 111.368 95.5937C111.54 94.6983 112.304 94.087 113.215 94.2592L113.233 94.2506Z" fill="#932836"></path>
<path d="M119.231 94.6896L117.822 94.3796L117.16 97.393L116.782 99.0978L117.882 99.3475L120.873 100.002L121.07 99.115L118.535 98.5554L118.011 98.4348L118.26 97.3069L119.343 97.548L120.005 97.6944L120.194 96.8076L119.945 96.7559L118.449 96.4288L118.656 95.5075L120.563 95.9294L121.551 96.1446L121.749 95.2492L121.139 95.1115L119.231 94.6896Z" fill="#932836"></path>
<path d="M13.5945 74.3539L11.8501 74.8274L11.1196 75.0254L12.7352 81.0264L6.08401 82.8259L4.46848 76.8249L0 78.0302L4.47707 94.6384L8.94556 93.4331L7.06364 86.442L13.7062 84.6339L15.5967 91.6422L17.9599 90.9965L19.7387 90.5144L20.0394 90.4283L15.5623 73.8201L13.5945 74.3539Z" fill="#932836"></path>
<path d="M24.1646 88.9819L24.2935 89.619L24.517 89.576L28.805 88.6978L25.4021 71.8313L20.8906 72.7439L24.1646 88.9819Z" fill="#932836"></path>
<path d="M41.3073 87.1564C43.9626 86.7948 46.9702 85.2967 49.067 83.282L48.01 75.4557L38.7551 76.7042L39.2363 80.26L44.1345 79.597L44.4438 81.9217C43.5587 82.6535 42.2182 83.1529 40.9464 83.3337C37.638 83.7814 35.5756 81.5084 35.2147 78.8394C34.828 75.9982 36.4607 73.355 39.2793 72.9675C40.8433 72.7523 43.1291 73.1656 44.8649 74.2332L47.3827 71.0131C44.5384 69.4031 41.3932 68.766 38.7379 69.1362C33.4445 69.8508 29.8267 74.457 30.5056 79.4507C31.1759 84.4357 35.8076 87.9054 41.3073 87.1564Z" fill="#932836"></path>
<path d="M57.3081 85.0817L56.9557 77.8409L63.8389 77.5051L64.1827 84.7459L68.78 84.522L67.9551 67.3284L63.3577 67.5522L63.6499 73.7685L56.7753 74.0956L56.4745 67.888L51.8428 68.1119L52.092 73.2347L52.6763 85.2969L57.1706 85.0903L57.3081 85.0817Z" fill="#932836"></path>
<path d="M90.3058 67.9137L85.3304 67.7416L80.183 79.0892H80.0283L75.6888 67.4144L71.3492 67.268L70.5586 67.2422L71.3749 69.1708L77.9402 84.7114L81.7556 84.8405L90.3058 67.9137Z" fill="#932836"></path>
<path d="M101.348 86.4851L106.349 87.0189L100.265 69.059L96.4758 68.6543L86.7139 84.9009L91.5605 85.4175L92.9096 82.9206L100.549 83.7472L101.365 86.4851H101.348ZM94.7399 79.5198L97.6101 74.2937H97.7648L99.449 80.0278L94.7399 79.5198Z" fill="#932836"></path>
<path d="M120.099 85.7359L113.379 84.4788L115.836 71.3748L111.316 70.5225L108.146 87.4406L118.165 89.3175L120.039 89.6791L122.152 90.0666L122.866 86.2611L121.938 86.0889L120.099 85.7359Z" fill="#932836"></path>
<path d="M141.995 81.56L143 77.8062L130.772 74.5345L129.036 74.0609L128.821 74.0093L126.527 82.576L124.37 90.6261L124.748 90.7294L139.108 94.5866L140.104 90.8499L129.818 88.0776L130.609 85.1503L136.444 86.7173L137.406 83.127L131.563 81.5686L132.259 78.934L141.995 81.56Z" fill="#932836"></path>
</g>
<defs>
<clipPath id="clip0_499_635">
<rect width="143" height="122" fill="white"></rect>
</clipPath>
</defs>
</svg>
